{
    "asset" : {
        "generator" : "Khronos glTF Blender I/O v1.1.45",
        "version" : "2.0"
    },
    "extensionsUsed" : [
        "KHR_lights_punctual"
    ],
    "extensionsRequired" : [
        "KHR_lights_punctual"
    ],
    "extensions" : {
        "KHR_lights_punctual" : {
            "lights" : [
                {
                    "color" : [
                        1,
                        1,
                        1
                    ],
                    "intensity" : 1000,
                    "type" : "point",
                    "name" : "Light"
                }
            ]
        }
    },
    "scene" : 0,
    "scenes" : [
        {
            "name" : "Scene",
            "nodes" : [
                1,
                3,
                4,
                5,
                6
            ]
        }
    ],
    "nodes" : [
        {
            "extensions" : {
                "KHR_lights_punctual" : {
                    "light" : 0
                }
            },
            "name" : "Light_Orientation",
            "rotation" : [
                -0.7071067690849304,
                0,
                0,
                0.7071067690849304
            ]
        },
        {
            "children" : [
                0
            ],
            "name" : "Light",
            "rotation" : [
                0.16907575726509094,
                0.7558803558349609,
                -0.27217137813568115,
                0.570947527885437
            ],
            "translation" : [
                4.076245307922363,
                5.903861999511719,
                6.883321762084961
            ]
        },
        {
            "camera" : 0,
            "name" : "front_Orientation",
            "rotation" : [
                -0.7071067690849304,
                0,
                0,
                0.7071067690849304
            ]
        },
        {
            "children" : [
                2
            ],
            "name" : "front",
            "rotation" : [
                0.6371176242828369,
                0,
                0,
                0.7707666158676147
            ],
            "translation" : [
                0,
                3.634173631668091,
                8.46369743347168
            ]
        },
        {
            "mesh" : 0,
            "name" : "alien_ghost",
            "translation" : [
                0,
                3,
                0
            ]
        },
        {
            "mesh" : 1,
            "name" : "eyes",
            "translation" : [
                -0.5914649963378906,
                2.8912415504455566,
                1.6926655769348145
            ]
        },
        {
            "mesh" : 2,
            "name" : "mouth",
            "translation" : [
                0,
                1.3068350553512573,
                1.5555723905563354
            ]
        }
    ],
    "cameras" : [
        {
            "name" : "front",
            "perspective" : {
                "yfov" : 0.6911112070083618,
                "zfar" : 100,
                "znear" : 0.10000000149011612
            },
            "type" : "perspective"
        }
    ],
    "materials" : [
        {
            "doubleSided" : true,
            "emissiveFactor" : [
                0,
                0,
                0
            ],
            "name" : "ghost",
            "pbrMetallicRoughness" : {
                "baseColorFactor" : [
                    0.30775895714759827,
                    0.36573389172554016,
                    1,
                    1
                ],
                "metallicFactor" : 0,
                "roughnessFactor" : 0.4000000059604645
            }
        },
        {
            "doubleSided" : true,
            "emissiveFactor" : [
                0,
                0,
                0
            ],
            "name" : "eye",
            "pbrMetallicRoughness" : {
                "baseColorFactor" : [
                    0.27859193086624146,
                    0.8000000715255737,
                    0.3694590926170349,
                    1
                ],
                "metallicFactor" : 0,
                "roughnessFactor" : 0.5
            }
        },
        {
            "doubleSided" : true,
            "emissiveFactor" : [
                0,
                0,
                0
            ],
            "name" : "mouth",
            "pbrMetallicRoughness" : {
                "baseColorFactor" : [
                    0.025162678211927414,
                    0.44153282046318054,
                    0.8000000715255737,
                    1
                ],
                "metallicFactor" : 0,
                "roughnessFactor" : 0.5
            }
        }
    ],
    "meshes" : [
        {
            "name" : "alien_ghost",
            "primitives" : [
                {
                    "attributes" : {
                        "POSITION" : 0,
                        "NORMAL" : 1,
                        "TEXCOORD_0" : 2
                    },
                    "indices" : 3,
                    "material" : 0
                }
            ]
        },
        {
            "name" : "eyes",
            "primitives" : [
                {
                    "attributes" : {
                        "POSITION" : 4,
                        "NORMAL" : 5,
                        "TEXCOORD_0" : 6
                    },
                    "indices" : 7,
                    "material" : 1
                }
            ]
        },
        {
            "name" : "mouth",
            "primitives" : [
                {
                    "attributes" : {
                        "POSITION" : 8,
                        "NORMAL" : 9,
                        "TEXCOORD_0" : 10
                    },
                    "indices" : 11,
                    "material" : 2
                }
            ]
        }
    ],
    "accessors" : [
        {
            "bufferView" : 0,
            "componentType" : 5126,
            "count" : 225,
            "max" : [
                2,
                1.7861143350601196,
                1.7579998970031738
            ],
            "min" : [
                -2,
                -3.3568923473358154,
                -1.3991717100143433
            ],
            "type" : "VEC3"
        },
        {
            "bufferView" : 1,
            "componentType" : 5126,
            "count" : 225,
            "type" : "VEC3"
        },
        {
            "bufferView" : 2,
            "componentType" : 5126,
            "count" : 225,
            "type" : "VEC2"
        },
        {
            "bufferView" : 3,
            "componentType" : 5123,
            "count" : 1248,
            "type" : "SCALAR"
        },
        {
            "bufferView" : 4,
            "componentType" : 5126,
            "count" : 126,
            "max" : [
                1.563353180885315,
                0.39999961853027344,
                0.3999999761581421
            ],
            "min" : [
                -0.3804231584072113,
                -0.4000003933906555,
                -0.4000000059604645
            ],
            "type" : "VEC3"
        },
        {
            "bufferView" : 5,
            "componentType" : 5126,
            "count" : 126,
            "type" : "VEC3"
        },
        {
            "bufferView" : 6,
            "componentType" : 5126,
            "count" : 126,
            "type" : "VEC2"
        },
        {
            "bufferView" : 7,
            "componentType" : 5123,
            "count" : 480,
            "type" : "SCALAR"
        },
        {
            "bufferView" : 8,
            "componentType" : 5126,
            "count" : 79,
            "max" : [
                1.1310641765594482,
                0.8417657017707825,
                0.20000004768371582
            ],
            "min" : [
                -1.1310642957687378,
                -0.18253213167190552,
                -0.2000001072883606
            ],
            "type" : "VEC3"
        },
        {
            "bufferView" : 9,
            "componentType" : 5126,
            "count" : 79,
            "type" : "VEC3"
        },
        {
            "bufferView" : 10,
            "componentType" : 5126,
            "count" : 79,
            "type" : "VEC2"
        },
        {
            "bufferView" : 11,
            "componentType" : 5123,
            "count" : 324,
            "type" : "SCALAR"
        }
    ],
    "bufferViews" : [
        {
            "buffer" : 0,
            "byteLength" : 2700,
            "byteOffset" : 0
        },
        {
            "buffer" : 0,
            "byteLength" : 2700,
            "byteOffset" : 2700
        },
        {
            "buffer" : 0,
            "byteLength" : 1800,
            "byteOffset" : 5400
        },
        {
            "buffer" : 0,
            "byteLength" : 2496,
            "byteOffset" : 7200
        },
        {
            "buffer" : 0,
            "byteLength" : 1512,
            "byteOffset" : 9696
        },
        {
            "buffer" : 0,
            "byteLength" : 1512,
            "byteOffset" : 11208
        },
        {
            "buffer" : 0,
            "byteLength" : 1008,
            "byteOffset" : 12720
        },
        {
            "buffer" : 0,
            "byteLength" : 960,
            "byteOffset" : 13728
        },
        {
            "buffer" : 0,
            "byteLength" : 948,
            "byteOffset" : 14688
        },
        {
            "buffer" : 0,
            "byteLength" : 948,
            "byteOffset" : 15636
        },
        {
            "buffer" : 0,
            "byteLength" : 632,
            "byteOffset" : 16584
        },
        {
            "buffer" : 0,
            "byteLength" : 648,
            "byteOffset" : 17216
        }
    ],
    "buffers" : [
        {
            "byteLength" : 17864,
            "uri" : "data:application/octet-stream;base64,"
        }
    ]
}
